<svg width="60" height="76" viewBox="0 0 60 76" fill="none" xmlns="http://www.w3.org/2000/svg">
<path d="M21.2002 23.4C23.4402 23.4 25.2402 21.6 25.2402 19.36C25.2402 17.12 23.4402 15.32 21.2002 15.32C18.9602 15.32 17.1602 17.12 17.1602 19.36C17.1602 21.6 18.9602 23.4 21.2002 23.4Z" fill="white"/>
<path fill-rule="evenodd" clip-rule="evenodd" d="M29.32 32.2C29.32 27.88 25.68 24.76 21.2 24.76C16.72 24.76 13.08 27.88 13.08 32.2V34.24C13.08 34.6 13.24 34.96 13.48 35.2C13.72 35.44 14.08 35.6 14.44 35.6H27.96C28.32 35.6 28.68 35.44 28.92 35.2C29.16 34.96 29.32 34.6 29.32 34.24V32.2ZM13 44C13 43.2044 13.3161 42.4413 13.8787 41.8787C14.4413 41.3161 15.2044 41 16 41H44C44.7956 41 45.5587 41.3161 46.1213 41.8787C46.6839 42.4413 47 43.2044 47 44C47 44.7957 46.6839 45.5587 46.1213 46.1213C45.5587 46.6839 44.7956 47 44 47H16C15.2044 47 14.4413 46.6839 13.8787 46.1213C13.3161 45.5587 13 44.7957 13 44ZM13 56C13 55.2044 13.3161 54.4413 13.8787 53.8787C14.4413 53.3161 15.2044 53 16 53H44C44.7956 53 45.5587 53.3161 46.1213 53.8787C46.6839 54.4413 47 55.2044 47 56C47 56.7957 46.6839 57.5587 46.1213 58.1213C45.5587 58.6839 44.7956 59 44 59H16C15.2044 59 14.4413 58.6839 13.8787 58.1213C13.3161 57.5587 13 56.7957 13 56Z" fill="white"/>
<path fill-rule="evenodd" clip-rule="evenodd" d="M0 8C0 3.592 3.592 0 8 0H34.76C37.008 0 39.128 0.952 40.62 2.524L40.644 2.552L57.892 21.36C59.328 22.892 60 24.896 60 26.8V68C60 72.408 56.408 76 52 76H8C3.592 76 0 72.408 0 68V8ZM34.756 8H8V68H52V26.768L34.816 8.028L34.804 8.024L34.756 8Z" fill="white"/>
<path fill-rule="evenodd" clip-rule="evenodd" d="M34.7598 0C35.8206 0 36.8381 0.421427 37.5882 1.17157C38.3383 1.92172 38.7598 2.93913 38.7598 4V22.8H55.9998C56.5251 22.8 57.0452 22.9035 57.5305 23.1045C58.0158 23.3055 58.4568 23.6001 58.8282 23.9716C59.1996 24.343 59.4943 24.784 59.6953 25.2693C59.8963 25.7546 59.9998 26.2747 59.9998 26.8C59.9998 27.3253 59.8963 27.8454 59.6953 28.3307C59.4943 28.816 59.1996 29.257 58.8282 29.6284C58.4568 29.9999 58.0158 30.2945 57.5305 30.4955C57.0452 30.6965 56.5251 30.8 55.9998 30.8H34.7598C33.6989 30.8 32.6815 30.3786 31.9313 29.6284C31.1812 28.8783 30.7598 27.8609 30.7598 26.8V4C30.7598 2.93913 31.1812 1.92172 31.9313 1.17157C32.6815 0.421427 33.6989 0 34.7598 0Z" fill="white"/>
</svg>
