<svg xmlns="http://www.w3.org/2000/svg" version="1.1" xmlns:xlink="http://www.w3.org/1999/xlink" width="1500" height="1500" viewBox="0 0 1500 1500"><rect width="1500" height="1500" x="0" y="0" id="background" stroke="transparent" fill="#000000"></rect><svg xml:space="preserve" width="1000" height="1000" data-version="2" data-id="lg_NyMIjkWivkvfkFfi3L" viewBox="0 0 137 137" x="250" y="250"><rect width="100%" height="100%" fill="transparent"></rect><path fill="#ededed" d="M68.5 135.531c-36.963 0-67.032-30.071-67.032-67.031 0-36.963 30.07-67.032 67.032-67.032 36.961 0 67.031 30.07 67.031 67.032 0 36.96-30.071 67.031-67.031 67.031m0-128.71C34.49 6.821 6.821 34.49 6.821 68.5c0 34.01 27.669 61.677 61.679 61.677 34.01 0 61.677-27.668 61.677-61.677S102.51 6.821 68.5 6.821"></path><path fill="#ededed" fill-rule="evenodd" d="M46.638 44.834c-1.302 8.065.369 16.594 7.264 21.278-7.026-31.35 9.734-43.805 25.256-52.37-18.08 25.754 18.882 26.423 20.984 56.02 1.793 25.234-15.551 44.91-35.519 53.495.23-25.506-25.2-28.98-27.756-49.843-1.002-8.161 3.644-23.055 9.771-28.58"></path></svg></svg>