<svg width="128" height="128" viewBox="0 0 128 128" fill="none" xmlns="http://www.w3.org/2000/svg">
<path d="M56.5399 16H72.3999V88.676C65.6307 90.0711 58.7393 90.788 51.8279 90.816C32.4599 90.796 22.3799 82.144 22.3799 65.528C22.3799 49.528 33.0719 39.128 49.6439 39.128C51.968 39.0852 54.2873 39.3543 56.5399 39.928V16ZM56.5399 52.568C54.8155 51.9998 53.007 51.7293 51.1919 51.768C43.1919 51.768 38.5399 56.66 38.5399 65.232C38.5399 73.58 42.9679 78.188 51.0919 78.188C52.9154 78.1928 54.7366 78.0591 56.5399 77.788V52.588V52.568Z" fill="#44B78B"/>
<path d="M97.6003 40.236V76.636C97.6003 89.168 96.6603 95.192 93.9083 100.388C91.0986 105.67 86.5063 109.785 80.9483 112L66.2363 105.068C71.5826 103.24 76.06 99.4929 78.8003 94.552C81.0643 90.068 81.7803 84.872 81.7803 71.204V40.236H97.6003ZM81.7643 16.08H97.6203V32.192H81.7643V16.08Z" fill="#44B78B"/>
</svg>
