<svg width="128" height="128" viewBox="0 0 128 128" fill="none" xmlns="http://www.w3.org/2000/svg">
<g clip-path="url(#clip0_168_214)">
<path d="M32 128C49.664 128 64 118.443 64 106.667V85.3334H32C14.336 85.3334 0 94.8907 0 106.667C0 118.443 14.336 128 32 128Z" fill="#0ACF83"/>
<path d="M0 64C0 52.224 14.336 42.6666 32 42.6666H64V85.3333H32C14.336 85.3333 0 75.776 0 64Z" fill="#A259FF"/>
<path d="M0 21.3333C0 9.55733 14.336 0 32 0H64V42.6667H32C14.336 42.6667 0 33.1093 0 21.3333Z" fill="#F24E1E"/>
<path d="M64 0H96C113.664 0 128 9.55733 128 21.3333C128 33.1093 113.664 42.6667 96 42.6667H64V0Z" fill="#FF7262"/>
<path d="M128 64C128 75.776 113.664 85.3333 96 85.3333C78.336 85.3333 64 75.776 64 64C64 52.224 78.336 42.6666 96 42.6666C113.664 42.6666 128 52.224 128 64Z" fill="#1ABCFE"/>
</g>
<defs>
<clipPath id="clip0_168_214">
<rect width="128" height="128" fill="white"/>
</clipPath>
</defs>
</svg>
