<svg width="80" height="80" viewBox="0 0 80 80" fill="none" xmlns="http://www.w3.org/2000/svg">
<g clip-path="url(#clip0_175_242)">
<path d="M10.9214 64.5475L20.7683 1.53873C20.8272 1.16218 21.003 0.813663 21.2708 0.54242C21.5386 0.271176 21.8848 0.0909116 22.2605 0.0270867C22.6363 -0.0367383 23.0226 0.0191025 23.3649 0.186722C23.7073 0.354341 23.9883 0.625267 24.1683 0.961234L34.352 19.955L38.4108 12.2262C38.5651 11.9331 38.7966 11.6876 39.0802 11.5164C39.3638 11.3452 39.6888 11.2547 40.0201 11.2547C40.3514 11.2547 40.6765 11.3452 40.9601 11.5164C41.2437 11.6876 41.4752 11.9331 41.6295 12.2262L69.1108 64.5475H10.9214Z" fill="#FFA000"/>
<path d="M44.9395 40.0031L34.347 19.9456L10.9214 64.5475L44.9395 40.0031Z" fill="#F57C00"/>
<path d="M69.1108 64.5475L61.5689 17.8775C61.5131 17.5485 61.368 17.2412 61.1493 16.9892C60.9306 16.7372 60.6467 16.5502 60.3289 16.4487C60.0111 16.3475 59.6717 16.3356 59.3476 16.4143C59.0235 16.493 58.7273 16.6593 58.4914 16.895L10.9214 64.5469L37.2433 79.3081C38.0562 79.7619 38.9717 80.0001 39.9026 80.0001C40.8336 80.0001 41.7491 79.7619 42.562 79.3081L69.1108 64.5475Z" fill="#FFCA28"/>
<path d="M61.5685 17.8775C61.5128 17.5485 61.3676 17.2412 61.1489 16.9892C60.9302 16.7372 60.6464 16.5503 60.3285 16.4488C60.0108 16.3475 59.6714 16.3354 59.3473 16.414C59.0233 16.4926 58.727 16.6588 58.491 16.8944L49.0492 26.3613L41.6248 12.2263C41.4705 11.9331 41.239 11.6877 40.9554 11.5164C40.6717 11.3452 40.3467 11.2547 40.0154 11.2547C39.6841 11.2547 39.3591 11.3452 39.0755 11.5164C38.7918 11.6877 38.5604 11.9331 38.406 12.2263L34.3473 19.9544L24.1635 0.961264C23.9833 0.624835 23.7018 0.353627 23.3589 0.186045C23.016 0.0184641 22.6291 -0.0369975 22.2529 0.0275143C21.877 0.0920084 21.5309 0.27305 21.2635 0.545034C20.9961 0.817018 20.821 1.16618 20.7629 1.54314L10.921 64.5475H10.8892L10.9204 64.5838L11.1798 64.7113L58.4773 17.3588C58.7132 17.1218 59.0098 16.9545 59.3345 16.8752C59.6593 16.7958 59.9996 16.8075 60.3182 16.909C60.6367 17.0105 60.9211 17.1978 61.1402 17.4503C61.3592 17.7029 61.5044 18.0109 61.5598 18.3406L69.0379 64.5925L69.1104 64.5469L61.5685 17.8775ZM11.0073 64.4613L20.7673 1.98876C20.8253 1.6116 21.0004 1.26224 21.2679 0.990123C21.5355 0.718006 21.8818 0.536926 22.2579 0.472514C22.6341 0.408057 23.0211 0.463612 23.364 0.631309C23.707 0.799006 23.9884 1.07034 24.1685 1.40689L34.351 20.4006L38.4104 12.6719C38.5647 12.3787 38.7962 12.1333 39.0798 11.9621C39.3635 11.7908 39.6885 11.7003 40.0198 11.7003C40.3511 11.7003 40.6761 11.7908 40.9597 11.9621C41.2434 12.1333 41.4748 12.3787 41.6292 12.6719L48.9029 26.5063L11.006 64.4613H11.0073Z" fill="white" fill-opacity="0.2"/>
<path opacity="0.2" d="M42.5618 78.8625C41.7489 79.3163 40.8334 79.5545 39.9024 79.5545C38.9714 79.5545 38.056 79.3163 37.243 78.8625L10.9837 64.1438L10.9199 64.5481L37.2418 79.3044C38.0547 79.7582 38.9702 79.9964 39.9012 79.9964C40.8321 79.9964 41.7476 79.7582 42.5605 79.3044L69.1105 64.5481L69.0418 64.1294L42.5605 78.8638L42.5618 78.8625Z" fill="#A52714"/>
</g>
<defs>
<clipPath id="clip0_175_242">
<rect width="80" height="80" fill="white"/>
</clipPath>
</defs>
</svg>
