<svg width="57" height="30" viewBox="0 0 57 30" fill="none" xmlns="http://www.w3.org/2000/svg">
<g clip-path="url(#clip0_167_200)">
<path d="M28.4449 29.9111C44.1544 29.9111 56.8894 23.2153 56.8894 14.9556C56.8894 6.69583 44.1544 0 28.4449 0C12.7355 0 0.000488281 6.69583 0.000488281 14.9556C0.000488281 23.2153 12.7355 29.9111 28.4449 29.9111Z" fill="url(#paint0_radial_167_200)"/>
<path d="M28.4452 28.8C43.5409 28.8 55.7785 22.6016 55.7785 14.9555C55.7785 7.30945 43.5409 1.11108 28.4452 1.11108C13.3494 1.11108 1.11182 7.30945 1.11182 14.9555C1.11182 22.6016 13.3494 28.8 28.4452 28.8Z" fill="#6181B6"/>
<path d="M33.9784 19.4445L35.334 12.4667C35.6451 10.8889 35.3784 9.71113 34.5784 8.9778C33.8006 8.26669 32.4673 7.91113 30.5117 7.91113H28.1562L28.8229 4.44447C28.8451 4.31113 28.8229 4.1778 28.734 4.06669C28.6451 3.95558 28.534 3.91113 28.4006 3.91113H25.1562C24.934 3.91113 24.7562 4.06669 24.7117 4.26669L23.2673 11.6667C23.134 10.8222 22.8229 10.1111 22.2895 9.53336C21.334 8.44447 19.8451 7.88891 17.8229 7.88891H11.5784C11.3562 7.88891 11.1784 8.04447 11.134 8.24447L8.22286 23.2667C8.20064 23.4 8.22286 23.5334 8.31175 23.6445C8.40064 23.7556 8.51175 23.8 8.64508 23.8H11.9117C12.134 23.8 12.3117 23.6445 12.3562 23.4445L13.0673 19.8222H15.4895C16.7562 19.8222 17.8451 19.6889 18.6673 19.4222C19.534 19.1334 20.3117 18.6667 21.0006 18.0222C21.5562 17.5111 22.0229 16.9334 22.3784 16.3111L21.8006 19.3111C21.7784 19.4445 21.8006 19.5778 21.8895 19.6889C21.9784 19.8 22.0895 19.8445 22.2229 19.8445H25.4673C25.6895 19.8445 25.8673 19.6889 25.9117 19.4889L27.5117 11.2667H29.734C30.6895 11.2667 30.9562 11.4445 31.0451 11.5334C31.1117 11.6 31.2451 11.8667 31.0895 12.6889L29.8006 19.3334C29.7784 19.4667 29.8006 19.6 29.8895 19.7111C29.9784 19.8222 30.0895 19.8667 30.2229 19.8667H33.5562C33.7562 19.8 33.934 19.6445 33.9784 19.4445ZM18.9562 13.6667C18.7562 14.7111 18.3784 15.4667 17.8229 15.8889C17.2673 16.3111 16.3562 16.5334 15.1562 16.5334H13.7117L14.7562 11.1556H16.6229C18.0006 11.1556 18.5562 11.4445 18.7784 11.6889C19.0673 12.0445 19.134 12.7334 18.9562 13.6667ZM47.8451 9.53336C46.8895 8.44447 45.4006 7.88891 43.3784 7.88891H37.0895C36.8673 7.88891 36.6895 8.04447 36.6451 8.24447L33.734 23.2445C33.7117 23.3778 33.734 23.5111 33.8229 23.6222C33.9117 23.7334 34.0229 23.7778 34.1562 23.7778H37.4229C37.6451 23.7778 37.8229 23.6222 37.8673 23.4222L38.5784 19.8H41.0006C42.2673 19.8 43.3562 19.6667 44.1784 19.4C45.0451 19.1111 45.8229 18.6445 46.5117 18C47.0895 17.4667 47.5784 16.8667 47.934 16.2222C48.2895 15.5778 48.5562 14.8667 48.7117 14.0889C49.0895 12.1556 48.8006 10.6445 47.8451 9.53336ZM44.4451 13.6667C44.2451 14.7111 43.8673 15.4667 43.3117 15.8889C42.7562 16.3111 41.8451 16.5334 40.6451 16.5334H39.2006L40.2451 11.1556H42.1117C43.4895 11.1556 44.0451 11.4445 44.2673 11.6889C44.5784 12.0445 44.6451 12.7334 44.4451 13.6667Z" fill="white"/>
<path d="M16.6225 10.7111C17.867 10.7111 18.6892 10.9333 19.1114 11.4C19.5337 11.8666 19.6225 12.6444 19.4003 13.7555C19.1781 14.9111 18.7337 15.7555 18.0892 16.2444C17.4448 16.7333 16.467 16.9778 15.1559 16.9778H13.1781L14.4003 10.7111H16.6225ZM8.66699 23.3333H11.9337L12.7114 19.3555H15.5114C16.7559 19.3555 17.7559 19.2222 18.5559 18.9555C19.3559 18.6889 20.067 18.2666 20.7337 17.6444C21.2892 17.1333 21.7337 16.5778 22.067 15.9778C22.4003 15.3778 22.6448 14.7111 22.7781 13.9778C23.1337 12.2 22.867 10.8222 22.0003 9.8222C21.1337 8.8222 19.7559 8.33331 17.867 8.33331H11.5781L8.66699 23.3333ZM25.1781 4.35553H28.4225L27.6448 8.33331H30.5337C32.3559 8.33331 33.6003 8.64442 34.2892 9.28886C34.9781 9.93331 35.1781 10.9555 34.9114 12.3778L33.5559 19.3555H30.267L31.5559 12.7111C31.7114 11.9555 31.6448 11.4444 31.4003 11.1778C31.1559 10.9111 30.6003 10.7555 29.7781 10.7555H27.1781L25.5114 19.3555H22.267L25.1781 4.35553ZM42.1114 10.7111C43.3559 10.7111 44.1781 10.9333 44.6003 11.4C45.0225 11.8666 45.1114 12.6444 44.8892 13.7555C44.667 14.9111 44.2225 15.7555 43.5781 16.2444C42.9337 16.7333 41.9559 16.9778 40.6448 16.9778H38.667L39.8892 10.7111H42.1114ZM34.1559 23.3333H37.4225L38.2003 19.3555H41.0003C42.2448 19.3555 43.2448 19.2222 44.0448 18.9555C44.8448 18.6889 45.5559 18.2666 46.2225 17.6444C46.7781 17.1333 47.2225 16.5778 47.5559 15.9778C47.8892 15.3778 48.1337 14.7111 48.267 13.9778C48.6225 12.2 48.3559 10.8222 47.4892 9.8222C46.6225 8.8222 45.2448 8.33331 43.3559 8.33331H37.067L34.1559 23.3333Z" fill="#000004"/>
</g>
<defs>
<radialGradient id="paint0_radial_167_200" cx="0" cy="0" r="1" gradientUnits="userSpaceOnUse" gradientTransform="translate(17.0786 5.25945) scale(37.3545)">
<stop stop-color="white"/>
<stop offset="0.5" stop-color="#4C6B97"/>
<stop offset="1" stop-color="#231F20"/>
</radialGradient>
<clipPath id="clip0_167_200">
<rect width="56.89" height="30" fill="white"/>
</clipPath>
</defs>
</svg>
