<svg width="64" height="128" viewBox="0 0 64 128" fill="none" xmlns="http://www.w3.org/2000/svg">
<g clip-path="url(#clip0_168_223)">
<path d="M43.9055 14.2474C38.153 7.8821 33.1993 1.41705 32.1873 0.0745618C32.1632 0.0510012 32.1343 0.0322433 32.1022 0.0194262C32.0702 0.00660906 32.0357 0 32.0008 0C31.9659 0 31.9314 0.00660906 31.8993 0.0194262C31.8673 0.0322433 31.8383 0.0510012 31.8143 0.0745618C30.8023 1.41728 25.8485 7.8821 20.0958 14.2474C-29.281 72.9772 27.8728 112.612 27.8728 112.612L28.352 112.91C28.778 119.026 29.8435 127.829 29.8435 127.829H34.1048C34.1048 127.829 35.1698 119.076 35.596 112.91L36.0755 112.562C36.1288 112.612 93.2825 72.9774 43.9055 14.2474ZM31.974 111.716C31.974 111.716 29.4173 109.678 28.7248 108.633V108.534L31.8143 44.5822C31.8143 44.3833 32.134 44.3833 32.134 44.5822L35.2233 108.534V108.633C34.5308 109.678 31.974 111.716 31.974 111.716" fill="#01EC64"/>
</g>
<defs>
<clipPath id="clip0_168_223">
<rect width="64" height="128" fill="white"/>
</clipPath>
</defs>
</svg>
