<svg width="128" height="128" viewBox="0 0 128 128" fill="none" xmlns="http://www.w3.org/2000/svg">
<g clip-path="url(#clip0_168_225)">
<path d="M38.0775 84.4642L41.9675 102.981C42.8415 107.185 43.206 110.12 43.06 111.793C45.1875 103.434 46.6741 94.324 47.5197 84.4642H52.1973C50.1858 100.516 47.5335 112.18 44.2405 119.457C41.675 125.064 38.8645 127.868 35.804 127.868C34.988 127.868 33.982 127.506 32.7882 126.788V122.919C33.3715 123.044 34.0558 123.111 34.8428 123.111C36.2703 123.111 37.4216 122.531 38.2967 121.372C39.345 119.961 39.8698 118.374 39.8698 116.615C39.8698 115.415 39.4605 112.95 38.6457 109.223L33.2257 84.4642H38.0775ZM8.30575 73.0833L15.4307 104.975H15.4747L22.6435 73.0833H28.5005C29.783 88.8995 30.5405 103.371 30.773 116.488H25.835C25.661 104.226 25.1803 92.6955 24.393 81.8951H24.35L16.8305 116.488H13.07L5.596 81.8951H5.552C4.99783 92.2676 4.64817 103.799 4.503 116.488H0C0.291 101.055 1.01925 86.5878 2.18475 73.0833H8.30575Z" fill="#00758F"/>
<path d="M88.1248 72.4392C95.789 72.4392 99.6213 79.6226 99.6213 93.9825C99.6213 101.786 98.4688 107.68 96.166 111.662C95.751 112.39 95.2923 113.018 94.8093 113.601L100.233 117.535L100.228 117.534L98.302 122.413L91.2388 116.367C90.0678 116.876 88.7802 117.13 87.376 117.13C83.6128 117.13 80.8018 115.521 78.9433 112.307C76.9033 108.752 75.8838 103.154 75.8838 95.525C75.8838 87.7658 77.0343 81.894 79.3378 77.9069C81.4358 74.2598 84.3653 72.4392 88.1248 72.4392ZM64.6548 72.5019C67.394 72.5019 69.8848 73.5773 72.1283 75.7203L70.9888 79.4455C69.069 78.2484 67.1763 77.6472 65.3098 77.6472C63.7953 77.6472 62.6283 78.182 61.8148 79.2581C60.9968 80.3246 60.4908 81.697 60.4908 83.3702C60.4908 85.9412 61.7393 88.1707 64.0445 90.0544C64.7997 90.6601 65.5523 91.2727 66.3023 91.8923L66.4743 92.0342L66.5605 92.1054L66.7328 92.2473L66.8188 92.3185L66.9908 92.4608C68.7358 93.904 70.3778 95.2815 70.3778 95.2815C72.6828 97.682 73.8318 100.241 73.8318 104.456C73.8318 108.138 72.9123 111.159 71.0793 113.524C69.245 115.878 66.7808 117.058 63.6948 117.058C60.8085 117.058 58.0113 115.7 55.3018 113.005L56.5693 109.277C58.901 110.991 61.011 111.848 62.9058 111.848C64.6828 111.848 66.0738 111.266 67.08 110.116C68.0843 108.958 68.686 107.344 68.686 105.296C68.686 102.719 67.464 100.516 65.2223 98.6675C64.5206 98.0988 63.821 97.5245 63.1235 96.9448L62.9518 96.8021C62.6363 96.5406 62.3185 96.2758 62.0073 96.0165L61.8385 95.8757C60.3248 94.6126 59.016 93.509 59.016 93.509C56.775 91.1041 55.6513 88.5239 55.6513 84.2724C55.6513 80.7563 56.4893 77.9142 58.1628 75.7522C59.8404 73.5853 62.0044 72.5019 64.6548 72.5019ZM108.629 73.0829V111.148H117.938V116.488H103.907V73.0832L108.629 73.0829ZM123.111 111.165V112.067H122.088V116.483H121.305V112.067H120.242V111.165H123.111ZM125.001 111.165L125.984 114.79L126.887 111.165H127.996V116.483H127.258V112.436L126.231 116.483H125.699L124.67 112.436H124.63V116.483H123.933V111.165H125.001ZM87.6428 77.7771C83.1263 77.7771 80.8668 83.2455 80.8668 94.175C80.8668 100.436 81.4655 104.975 82.6608 107.805C83.7678 110.424 85.5015 111.73 87.8623 111.73C92.3788 111.73 94.638 106.219 94.638 95.2027C94.638 89.0297 94.0393 84.5288 92.8455 81.6978C91.7373 79.0849 90.0043 77.7771 87.643 77.7771" fill="#F29111"/>
<path d="M75.8041 2.68949C77.3024 -2.71145 82.5411 1.37868 84.5741 3.26531C85.0724 3.73733 85.6439 4.73456 86.2151 5.10315C87.1064 5.1545 87.9969 5.25683 88.8896 5.31148C90.5641 5.88876 92.1326 6.36041 93.4521 7.4629C99.5841 12.7608 103.576 18.1595 107.25 27.077C108.035 28.9658 108.427 31.0098 109.068 33.0537C109.958 36.1004 110.958 39.2986 111.991 42.1795C112.454 43.5453 112.811 45.0641 113.454 46.2176C113.704 46.745 114.417 46.9005 114.842 47.2155C116.019 48.1093 117.445 48.7878 118.552 49.8368C120.62 51.7278 122.618 53.9812 124.435 56.2881C125.113 57.1786 125.574 58.4392 126.219 59.381V59.8563C125.647 60.1142 125.076 60.3783 124.505 60.5899C123.257 61.0601 122.152 60.9537 120.941 61.4243C120.193 61.7426 119.264 62.1626 118.48 62.2693L118.552 62.3764C119.014 64.311 121.511 65.8845 122.653 67.0416C124.04 68.5101 125.325 70.2911 126.36 72.3365C126.717 72.8584 127.074 73.3334 127.43 73.8538C127.678 74.3812 127.748 75.0634 128 75.5336V75.6928C127.721 75.5486 127.521 75.2736 127.331 74.986L127.218 74.8125C127.105 74.6402 126.99 74.4707 126.86 74.331C126.073 73.5424 125.292 72.5991 124.505 71.866C123.152 70.6065 121.582 69.8756 120.193 68.6113C119.408 67.8774 118.659 67.0416 117.91 66.2017C117.231 65.4656 116.484 64.0521 116.057 63.0032C115.806 62.4237 115.772 61.7426 115.485 61.3234C115.536 60.6232 115.973 60.4153 116.414 60.2444L116.516 60.2051C116.668 60.1472 116.817 60.0892 116.947 60.0126C118.801 58.858 121.01 58.4392 123.864 58.5441C123.756 57.4929 121.973 56.1832 121.404 55.5539C120.262 54.3457 119.052 53.0852 117.84 51.9856C117.198 51.4098 116.091 50.9895 115.379 50.519C114.417 49.9417 112.277 49.3648 111.743 48.2652C110.837 46.5319 110.186 44.4644 109.554 42.3761L109.382 41.8061L109.21 41.2366C108.463 38.7217 107.535 36.0997 106.786 33.5247C106.394 32.2685 106.215 31.166 105.786 29.9612C103.184 22.568 99.3334 16.3782 94.6646 12.0251C93.1304 10.6086 91.4196 9.29781 89.5311 8.40695C88.4609 7.93272 87.1764 8.19496 86.0361 7.83113H85.2856C84.6451 7.56633 84.1104 6.5702 83.6106 6.045C82.5069 4.94545 81.4014 4.20715 80.0814 3.42265C79.6189 3.10797 78.2981 2.37518 77.8371 2.95209C77.5516 3.05735 77.4069 3.21543 77.3366 3.63574C77.0526 4.2629 77.3024 5.20768 77.4791 5.78607C78.0146 7.46217 78.7626 8.45829 79.4416 9.87473C80.0456 11.1309 80.7959 12.5473 81.2241 13.9131C82.1481 16.8491 82.5784 20.1019 83.4346 23.0375C83.7521 24.1414 84.2544 25.3976 84.7166 26.3933C85.1084 27.1837 85.8206 27.7551 86.0361 28.7556C86.4656 29.8046 85.3931 33.2657 85.1449 34.3649C84.2161 38.6659 84.3961 44.6445 85.4656 48.3727L85.5226 48.5692L85.5796 48.7684C85.9701 50.1339 86.3881 51.6042 87.4264 51.986C87.4979 51.8818 87.4264 51.9365 87.5681 51.8818C87.8194 48.9962 87.8901 46.2172 88.5681 43.9594C88.9599 42.5477 89.7421 41.5498 90.2784 40.3974C90.6359 40.7114 90.6359 41.658 90.8489 42.2844C91.3129 43.9092 91.8111 45.6905 92.3831 47.3201C93.5571 50.6759 94.8781 53.9295 96.3749 56.865C96.8761 57.9136 97.5874 59.0678 98.2289 60.0122C98.5146 60.3779 98.8346 60.5891 99.0494 61.0597H99.1194V61.2181C98.0499 60.6398 97.3719 59.0165 96.5189 58.0688C94.9129 56.2874 92.9896 53.6122 91.8826 51.0453C91.4196 49.5716 90.9191 48.1592 90.4201 46.6929V46.5869C90.2069 47.0057 90.2784 47.4216 90.1716 48.0554C89.7086 50.6759 90.0651 53.6654 88.4609 54.608C86.6424 55.7119 85.2859 52.8266 84.7166 51.5154C82.8976 47.1634 82.3994 39.8216 83.6821 33.8951C83.9671 32.5832 84.0059 31.0098 84.5034 29.9623C84.3959 29.0153 83.8984 28.7564 83.6106 28.1762C83.1116 27.1844 82.6844 26.0291 82.2936 24.9278C81.5431 22.7763 81.0091 20.2057 80.4394 17.8984C80.1889 16.9562 80.1171 16.0103 79.8674 15.1183C79.4414 13.7569 78.6561 12.3911 78.0504 11.1866C77.2301 9.45552 74.8411 6.10038 75.8041 2.68949ZM87.4971 12.9643C87.5924 13.1044 87.7074 13.2269 87.8264 13.3476L87.9699 13.4921C88.1611 13.6865 88.3464 13.8911 88.4599 14.1699C88.6399 14.5388 88.6734 14.903 88.8889 15.2727C88.8889 16.5333 88.6399 17.3713 88.1371 17.8936C88.1371 17.8936 88.1029 17.9486 88.0676 18C87.7826 17.1597 87.5329 16.3239 87.2459 15.4844C86.8924 14.7516 86.3926 14.1702 86.1046 13.3329H86.0354V13.2277C86.4656 13.0718 86.8924 12.9643 87.4971 12.9643Z" fill="#00758F"/>
</g>
<defs>
<clipPath id="clip0_168_225">
<rect width="128" height="128" fill="white"/>
</clipPath>
</defs>
</svg>
