<svg width="128" height="128" viewBox="0 0 128 128" fill="none" xmlns="http://www.w3.org/2000/svg">
<path d="M63.9999 120C62.4889 120.001 61.0044 119.603 59.6959 118.848L45.9999 110.74C43.9559 109.596 44.9519 109.192 45.6279 108.956C47.8022 108.285 49.8838 107.345 51.8239 106.156C51.986 106.08 52.1652 106.047 52.3439 106.06C52.5226 106.073 52.6948 106.133 52.8439 106.232L63.3679 112.484C63.5638 112.588 63.7822 112.642 64.0039 112.642C64.2256 112.642 64.4439 112.588 64.6399 112.484L105.68 88.796C105.873 88.6818 106.032 88.5191 106.142 88.3239C106.253 88.1288 106.31 87.9081 106.308 87.684V40.3C106.308 40.0725 106.25 39.8487 106.139 39.6504C106.027 39.4521 105.866 39.2859 105.672 39.168L64.6319 15.5C64.4387 15.3899 64.2202 15.332 63.9979 15.332C63.7755 15.332 63.557 15.3899 63.3639 15.5L22.3479 39.176C22.1522 39.2917 21.9898 39.456 21.8763 39.6529C21.7627 39.8498 21.702 40.0727 21.6999 40.3V87.664C21.7025 87.887 21.7633 88.1054 21.8762 88.2976C21.9892 88.4898 22.1504 88.6492 22.3439 88.76L33.5999 95.256C39.6999 98.304 43.4359 94.712 43.4359 91.104V44.34C43.4359 44.0217 43.5623 43.7165 43.7874 43.4915C44.0124 43.2664 44.3176 43.14 44.6359 43.14H49.8359C50.1541 43.14 50.4594 43.2664 50.6844 43.4915C50.9095 43.7165 51.0359 44.0217 51.0359 44.34V91.108C51.0359 99.248 46.6039 103.908 38.8839 103.908C35.5537 103.964 32.2761 103.073 29.4319 101.34L18.6439 95.152C17.3353 94.3881 16.2495 93.295 15.4944 91.9813C14.7394 90.6676 14.3413 89.1792 14.3399 87.664V40.3C14.3352 38.782 14.7305 37.2895 15.4861 35.9728C16.2417 34.6562 17.3308 33.5618 18.6439 32.8L59.6879 9.104C61.0105 8.38209 62.4931 8.00378 63.9999 8.00378C65.5067 8.00378 66.9893 8.38209 68.3119 9.104L109.352 32.8C110.66 33.5627 111.746 34.6543 112.502 35.9665C113.257 37.2787 113.657 38.7658 113.66 40.28V87.664C113.658 89.1796 113.259 90.6683 112.504 91.982C111.748 93.2957 110.661 94.3886 109.352 95.152L68.3119 118.848C67.001 119.605 65.5136 120.002 63.9999 120Z" fill="#83CD29"/>
<path d="M56.2158 71.812C56.2158 71.4937 56.3422 71.1885 56.5673 70.9635C56.7923 70.7384 57.0976 70.612 57.4158 70.612H62.7238C63.0074 70.6129 63.2816 70.7142 63.4976 70.898C63.7136 71.0818 63.8575 71.3362 63.9038 71.616C64.7038 77.02 67.1038 79.744 77.9558 79.744C86.5998 79.744 90.2838 77.788 90.2838 73.2C90.2838 70.556 89.2398 68.592 75.8038 67.276C64.5718 66.164 57.6278 63.676 57.6278 54.7C57.6278 46.42 64.6078 41.48 76.3078 41.48C89.4558 41.48 95.9638 46.044 96.7878 55.836C96.8004 55.9995 96.7794 56.1638 96.726 56.3188C96.6726 56.4738 96.588 56.6163 96.4774 56.7373C96.3669 56.8584 96.2326 56.9555 96.0831 57.0227C95.9335 57.0899 95.7718 57.1257 95.6078 57.128H90.2638C89.9957 57.1242 89.7366 57.0308 89.5278 56.8626C89.319 56.6944 89.1726 56.4611 89.1118 56.2C87.8358 50.516 84.7118 48.7 76.3118 48.7C66.8718 48.7 65.7758 51.988 65.7758 54.452C65.7758 57.436 67.0718 58.308 79.8158 59.992C92.4278 61.66 98.4198 64.02 98.4198 72.884C98.4198 81.828 90.9638 86.948 77.9598 86.948C59.9798 86.972 56.2158 78.728 56.2158 71.812Z" fill="#83CD29"/>
</svg>
