<svg width="128" height="128" viewBox="0 0 128 128" fill="none" xmlns="http://www.w3.org/2000/svg">
<g clip-path="url(#clip0_168_229)">
<path d="M127.504 76.6478C126.736 74.3937 124.726 72.8238 122.126 72.4471C120.9 72.2696 119.496 72.3453 117.834 72.6774C114.938 73.2568 112.79 73.4774 111.222 73.52C117.14 63.8303 121.953 52.7806 124.723 42.3792C129.203 25.5603 126.809 17.8982 124.012 14.4325C116.608 5.2592 105.807 0.331196 92.7758 0.180409C85.8243 0.0979843 79.7218 1.42889 76.5383 2.38598C73.5743 1.87883 70.3873 1.59568 67.0433 1.54332C60.7748 1.44635 55.2363 2.77144 50.5038 5.49483C47.8838 4.63568 43.6788 3.42453 38.8228 2.65168C27.4018 0.833499 18.1968 2.25023 11.4638 6.86259C3.31081 12.4471 -0.468688 22.1499 0.230312 35.7014C0.452312 40.0039 2.93431 53.0948 6.84231 65.5099C9.08831 72.6459 11.4833 78.5717 13.9608 83.1244C17.4743 89.5802 21.2338 93.3819 25.4543 94.7472C27.8198 95.5113 32.1178 96.0466 36.6383 92.3957C37.2113 93.0686 37.9758 93.7373 38.9903 94.3583C40.2788 95.1462 41.8543 95.7901 43.4278 96.1717C49.0983 97.5462 54.4098 97.2025 58.9413 95.2757C58.9693 96.0573 58.9908 96.8039 59.0088 97.4488C59.0388 98.4946 59.0688 99.52 59.1083 100.479C59.3768 106.963 59.8318 112.005 61.1798 115.533C61.2538 115.727 61.3533 116.023 61.4583 116.337C62.1308 118.333 63.2553 121.676 66.1163 124.293C69.0788 127.005 72.6623 127.837 75.9443 127.837C77.5903 127.837 79.1608 127.627 80.5383 127.341C85.4483 126.321 91.0248 124.766 95.0588 119.196C98.8728 113.931 100.727 106 101.062 93.504C101.106 93.1504 101.146 92.813 101.184 92.4917L101.264 91.8313L102.163 91.9079L102.394 91.923C107.395 92.144 113.51 91.1157 117.266 89.424C120.233 88.0888 129.743 83.2204 127.504 76.6478Z" fill="black"/>
<path d="M118.953 77.9258C104.083 80.9003 103.061 76.0184 103.061 76.0184C118.761 53.4278 125.324 24.7524 119.661 17.7343C104.209 -1.40999 77.4614 7.64407 77.0149 7.87874L76.8714 7.90395C73.9334 7.31243 70.6459 6.96043 66.9504 6.90177C60.2224 6.7951 55.1184 8.61231 51.2454 11.4603C51.2454 11.4603 3.5304 -7.60102 5.7499 35.4332C6.2219 44.5881 19.2819 104.705 34.8589 86.5469C40.5524 79.9069 46.0539 74.2928 46.0539 74.2928C48.7859 76.0528 52.0569 76.9507 55.4859 76.6283L55.7524 76.4092C55.6694 77.2334 55.7074 78.0397 55.8589 78.9944C51.8459 83.342 53.0254 84.1052 45.0034 85.7066C36.8859 87.3289 41.6544 90.2167 44.7679 90.9721C48.5424 91.887 57.2744 93.1835 63.1744 85.1743L62.9394 86.0882C64.5114 87.3095 65.6154 94.0315 65.4304 100.126C65.2454 106.219 65.1219 110.403 66.3604 113.671C67.5999 116.939 68.8344 124.291 79.3804 122.1C88.1919 120.269 92.7584 115.524 93.3939 107.608C93.8444 101.981 94.8649 102.813 94.9289 97.7818L95.7474 95.4002C96.6909 87.7721 95.8974 85.311 101.326 86.4557L102.646 86.5682C106.641 86.7442 111.871 85.9447 114.94 84.5614C121.549 81.5873 125.469 76.621 118.952 77.9258H118.953Z" fill="#336791"/>
<path d="M54.0383 39.5272C52.6983 39.3464 51.4848 39.5137 50.8708 39.9646C50.5258 40.2182 50.4188 40.512 50.3898 40.7142C50.3128 41.2499 50.6998 41.8424 50.9378 42.1479C51.6108 43.0128 52.5939 43.6072 53.5669 43.7382C53.7079 43.7572 53.8482 43.7666 53.9878 43.7663C55.6103 43.7663 57.0858 42.5411 57.2158 41.6368C57.3783 40.5042 55.6828 39.7488 54.0383 39.5272ZM98.4304 39.5631C98.3024 38.6754 96.6733 38.4223 95.1273 38.6308C93.5833 38.8392 92.0863 39.5151 92.2113 40.4048C92.3113 41.0967 93.5998 42.2778 95.1248 42.2778C95.2538 42.2778 95.3839 42.2691 95.5149 42.2516C96.5329 42.1149 97.2798 41.488 97.6348 41.1268C98.1748 40.576 98.4879 39.9622 98.4304 39.5631Z" fill="white"/>
<path d="M123.901 77.5878C123.334 75.9253 121.509 75.3905 118.477 75.9975C109.474 77.7992 106.25 76.5512 105.192 75.7954C112.189 65.4584 117.946 52.9629 121.051 41.3047C122.522 35.7823 123.335 30.6535 123.401 26.4732C123.475 21.8851 122.669 18.5134 121.007 16.4538C114.306 8.15075 104.471 3.69693 92.566 3.57475C84.3815 3.48554 77.4665 5.51657 76.126 6.08772C73.303 5.40699 70.2255 4.98905 66.875 4.93572C60.731 4.83923 55.42 6.26566 51.023 9.17329C49.113 8.48384 44.177 6.84069 38.1405 5.89766C27.7045 4.26857 19.4115 5.50299 13.4935 9.56845C6.43197 14.4198 3.17197 23.0918 3.80347 35.343C4.01597 39.4647 6.43797 52.1444 10.26 64.2875C15.291 80.27 20.76 89.3178 26.514 91.1791C27.1875 91.3968 27.964 91.5491 28.8205 91.5491C30.9195 91.5491 33.493 90.6317 36.1705 87.5103C39.4363 83.7113 42.8145 80.0045 46.301 76.3946C48.563 77.5718 51.048 78.2293 53.5895 78.2952C53.5948 78.3599 53.6006 78.4242 53.607 78.4882C53.1695 78.9941 52.7411 79.5073 52.322 80.0276C50.561 82.1954 50.1945 82.6467 44.526 83.7784C42.9135 84.1013 38.631 84.9571 38.568 87.8681C38.5 91.0487 43.6305 92.3845 44.215 92.526C46.252 93.0206 48.2145 93.2644 50.086 93.2644C54.6375 93.2644 58.643 91.8138 61.844 89.007C61.7455 100.346 62.233 111.519 63.637 114.923C64.787 117.71 67.596 124.52 76.469 124.52C77.771 124.52 79.204 124.373 80.7805 124.045C90.041 122.12 94.0625 118.151 95.618 109.401C96.4505 104.725 97.879 93.5583 98.551 87.5684C99.969 87.9975 101.794 88.1939 103.768 88.1934C107.884 88.1934 112.633 87.3454 115.612 86.0048C118.958 84.4979 124.996 80.8004 123.901 77.5878ZM101.848 37.1127C101.817 38.8809 101.566 40.4863 101.3 42.1619C101.014 43.9641 100.718 45.8274 100.643 48.0892C100.57 50.2904 100.853 52.5789 101.127 54.7922C101.681 59.2625 102.25 63.8647 100.049 68.4058C99.6845 67.7775 99.3589 67.1284 99.0745 66.462C98.801 65.8191 98.207 64.7864 97.3845 63.3571C94.185 57.7929 86.6925 44.7631 90.528 39.4463C91.6705 37.8637 94.57 36.2366 101.848 37.1127ZM93.026 7.15536C103.693 7.38372 112.131 11.2533 118.105 18.656C122.687 24.334 117.641 50.1701 103.035 72.4591C102.888 72.278 102.74 72.0975 102.592 71.9175L102.407 71.6935C106.181 65.6489 105.443 59.6683 104.786 54.366C104.516 52.19 104.261 50.1347 104.326 48.2041C104.393 46.158 104.672 44.4029 104.942 42.7059C105.274 40.6147 105.611 38.4509 105.518 35.9001C105.588 35.6324 105.616 35.3163 105.579 34.9411C105.342 32.495 102.462 25.1743 96.592 18.5483C93.381 14.9241 88.6985 10.8683 82.305 8.13281C85.055 7.58008 88.8155 7.06469 93.026 7.15536ZM33.337 85.2257C30.387 88.6652 28.35 88.0058 27.68 87.7895C23.315 86.3777 18.25 77.4312 13.7845 63.2446C9.92047 50.9692 7.66247 38.6254 7.48347 35.1641C6.91947 24.2172 9.65597 16.5881 15.6175 12.4882C25.3195 5.81669 41.2705 9.8099 47.68 11.8351C47.588 11.9234 47.492 12.0058 47.401 12.0955C36.883 22.3956 37.1325 39.9937 37.1585 41.0695C37.1575 41.4846 37.1935 42.0722 37.2425 42.8804C37.4235 45.8404 37.7605 51.3493 36.8605 57.5878C36.0245 63.3852 37.8675 69.0594 41.916 73.1558C42.3313 73.5756 42.768 73.975 43.2245 74.3524C41.4225 76.224 37.506 80.3626 33.337 85.2257ZM44.5765 70.6836C41.3135 67.3818 39.8315 62.7893 40.51 58.0824C41.46 51.4923 41.1095 45.7527 40.921 42.6691C40.8945 42.2375 40.871 41.8594 40.8575 41.5612C42.394 40.24 49.5145 36.5406 54.5925 37.6688C56.9095 38.1832 58.3215 39.7134 58.9085 42.3452C61.9465 55.9709 59.3105 61.6499 57.1925 66.2138C56.756 67.1539 56.3435 68.0426 55.9915 68.9619L55.7185 69.6727C55.0275 71.4695 54.3845 73.1403 53.986 74.7267C50.517 74.717 47.1425 73.28 44.5765 70.6831M45.109 89.0589C44.096 88.8135 43.185 88.3874 42.6505 88.0339C43.097 87.8303 43.8915 87.5529 45.2695 87.2775C51.938 85.9466 52.968 85.007 55.217 82.238C55.7325 81.6029 56.317 80.8834 57.1265 80.0068L57.1275 80.0058C58.333 78.6967 58.8845 78.9188 59.8845 79.3212C60.695 79.646 61.4845 80.6312 61.8045 81.7154C61.956 82.2274 62.126 83.199 61.5695 83.9554C56.8715 90.334 50.0255 90.2521 45.109 89.0589ZM80.0085 120.551C71.8505 122.246 68.962 118.209 67.0585 113.595C65.83 110.616 65.226 97.183 65.6545 82.3481C65.66 82.1508 65.631 81.9602 65.575 81.7808C65.5249 81.4266 65.4488 81.0762 65.347 80.7326C64.71 78.574 63.1575 76.7684 61.295 76.0198C60.555 75.7226 59.197 75.1772 57.565 75.582C57.913 74.1915 58.5165 72.6211 59.171 70.9207L59.4455 70.2055C59.7545 69.3992 60.1425 68.5638 60.5525 67.6795C62.769 62.9047 65.8045 56.3646 62.51 41.5898C61.276 36.0557 57.155 33.3532 50.908 33.9811C47.163 34.3568 43.7365 35.822 42.0275 36.6623C41.66 36.8426 41.324 37.0172 41.01 37.1869C41.487 31.6111 43.289 21.1907 50.03 14.5978C54.2745 10.4475 59.927 8.39754 66.814 8.50808C80.384 8.72336 89.086 15.4763 93.997 21.104C98.229 25.9529 100.52 30.8378 101.435 33.4724C94.5575 32.7941 89.88 34.1105 87.509 37.3978C82.3505 44.5483 90.331 58.4266 94.1665 65.0967C94.87 66.319 95.477 67.3755 95.668 67.8244C96.917 70.7597 98.534 72.7195 99.7145 74.1498C100.076 74.5881 100.427 75.0133 100.694 75.3847C98.6115 75.967 94.87 77.3124 95.211 84.0378C94.936 87.4123 92.9805 103.212 91.987 108.794C90.6755 116.168 87.877 118.914 80.0085 120.551ZM114.06 82.7641C111.93 83.7226 108.366 84.4417 104.98 84.5963C101.24 84.766 99.336 84.19 98.888 83.8356C98.678 79.6446 100.286 79.2068 101.989 78.7432C102.256 78.6705 102.517 78.5992 102.769 78.5139C102.926 78.6377 103.098 78.7599 103.285 78.8804C106.291 80.8043 111.653 81.0118 119.222 79.4967L119.305 79.4807C118.284 80.4063 116.537 81.6484 114.06 82.7641Z" fill="white"/>
</g>
<defs>
<clipPath id="clip0_168_229">
<rect width="128" height="128" fill="white"/>
</clipPath>
</defs>
</svg>
